<?xml version="1.0" encoding="UTF-8"?>
<svg width="16px" height="16px" viewBox="0 0 16 16" version="1.1" xmlns="http://www.w3.org/2000/svg" xmlns:xlink="http://www.w3.org/1999/xlink" style="background: #FFFFFF;">
    <!-- Generator: Sketch 47.1 (45422) - http://www.bohemiancoding.com/sketch -->
    <title>icon/Image Geo Tag</title>
    <desc>Created with Sketch.</desc>
    <defs></defs>
    <g id="Symbols" stroke="none" stroke-width="1" fill="none" fill-rule="evenodd">
        <g id="icon/Image-Geo-Tag">
            <path d="M0,4 L0,4.52173913 L0,14.6086991 L0,15.1304383 L0.52173913,15.1304383 L15.4782609,15.1304383 L16,15.1304383 L16,14.6086991 L16,4.52173913 L16,4 L15.4782609,4 L0.52173913,4 L0,4 Z M1.04347826,5.04347826 L14.9565217,5.04347826 L14.9565217,11.08696 L12.326087,8.98369565 C12.1539878,8.84447478 11.8901478,8.83290261 11.7065217,8.95652174 L9.23913043,10.6521774 L5.89130435,7.94021739 C5.78453043,7.85326783 5.6423287,7.81120696 5.50543478,7.82608696 C5.41972522,7.83646957 5.33672696,7.86853217 5.26630435,7.91847826 L1.04347826,10.8315339 L1.04347826,5.04347826 Z M5.54347826,9 L8.89130435,11.7065252 C9.06340348,11.8457426 9.32724348,11.8573252 9.51086957,11.7337078 L11.9728261,10.0380383 L14.9565217,12.4239165 L14.9565217,14.08696 L1.04347826,14.08696 L1.04347826,12.103273 L5.54347826,9 Z" id="Shape" fill="#000000" fill-rule="nonzero"></path>
            <path d="M6,13 C8.66666667,9.13140854 10,6.46215941 10,4.99225259 C10,2.78739237 8.209139,1 6,1 C3.790861,1 2,2.78739237 2,4.99225259 C2,6.46215941 3.33333333,9.13140854 6,13 Z" id="Oval-4" fill="#FFFFFF"></path>
            <g id="Group" transform="translate(2.000000, 1.000000)" fill-rule="nonzero" fill="#000000">
                <path d="M4,0 C1.80467692,0 0,1.62902887 0,3.95270991 C0,4.79412473 0.235830769,5.69533381 0.620184615,6.37284293 L3.73076923,11.8489858 C3.7849731,11.94217 3.88807348,12 4,12 C4.11192652,12 4.2150269,11.94217 4.26923077,11.8489858 L7.37981538,6.37284293 C7.76418462,5.69530453 8,4.79411009 8,3.95270991 C8,1.62902887 6.19532308,0 4,0 Z M4,0.984892583 C5.88307692,0.984892583 6.99588895,1.9103447 6.99588895,3.95270991 C6.99588895,4.6848689 6.85181331,5.33298951 6.52801331,5.9037374 L4,10.4274124 L1.44698793,6.09376697 C1.12320331,5.52304836 0.977334043,4.68485426 0.977334043,3.95270991 C0.977334043,1.9103447 2.11692308,0.984892583 4,0.984892583 Z M4,1.90315662 C2.89907692,1.90315662 2,2.75871336 2,3.80631325 C2,4.85392777 2.89907692,5.70947572 4,5.70947572 C5.10092308,5.70947572 6,4.85392777 6,3.80631325 C6,2.75871336 5.10092308,1.90315662 4,1.90315662 Z M4,2.48874328 C4.76833846,2.48874328 5.38461538,3.07519367 5.38461538,3.80631325 C5.38461538,4.53744746 4.76833846,5.12388322 4,5.12388322 C3.23166154,5.12388322 2.61538462,4.53744746 2.61538462,3.80631325 C2.61538462,3.07519367 3.23166154,2.48874328 4,2.48874328 Z" id="Shape"></path>
            </g>
        </g>
    </g>
</svg>