<?xml version="1.0" encoding="UTF-8" standalone="no"?>
<svg width="16px" height="16px" viewBox="0 0 16 16" version="1.1" xmlns="http://www.w3.org/2000/svg" xmlns:xlink="http://www.w3.org/1999/xlink">
    <!-- Generator: Sketch 46.1 (44463) - http://www.bohemiancoding.com/sketch -->
    <title>[icon] Group</title>
    <desc>Created with Sketch.</desc>
    <defs></defs>
    <g id="Symbols" stroke="none" stroke-width="1" fill="none" fill-rule="evenodd">
        <g id="[icon]-Group" fill-rule="nonzero" fill="#000000">
            <path d="M15.0028221,11.2873315 L14.3197847,11.2873315 L14.3197847,9.62400568 C14.3197847,8.9194567 13.7464386,8.34628841 13.0418896,8.34628841 L8.43752072,8.34628841 L8.43752072,6.27957585 L9.68074833,6.27957585 C10.3852973,6.27957585 10.9586434,5.70622978 10.9586434,5.00185858 L10.9586434,1.64071727 C10.9586434,0.936168285 10.3852973,0.363 9.68074833,0.363 L6.31960702,0.363 C5.61505804,0.363 5.04171197,0.936168285 5.04171197,1.64071727 L5.04171197,5.00185858 C5.04171197,5.70622978 5.61505804,6.27957585 6.31960702,6.27957585 L7.56283463,6.27957585 L7.56283463,8.34628841 L2.9584657,8.34628841 C2.25391672,8.34628841 1.68057066,8.9194567 1.68057066,9.62400568 L1.68057066,11.2873315 L0.997533265,11.2873315 C0.447654386,11.2873315 0,11.7344525 0,12.2845092 L0,14.5252701 C0,15.0756823 0.447654386,15.5229811 0.997533265,15.5229811 L3.23829414,15.5229811 C3.7883508,15.5229811 4.23582741,15.0753267 4.23582741,14.5252701 L4.23582741,12.2845092 C4.23582741,11.7344525 3.78817302,11.2873315 3.23829414,11.2873315 L2.55525675,11.2873315 L2.55525675,9.62400568 C2.55525675,9.4019563 2.73606077,9.2209745 2.95828792,9.2209745 L7.56283463,9.2209745 L7.56283463,11.2873315 L6.87961946,11.2873315 C6.3295628,11.2873315 5.88208619,11.7348081 5.88208619,12.2845092 L5.88208619,14.5252701 C5.88208619,15.0756823 6.32974058,15.5229811 6.87961946,15.5229811 L9.12055811,15.5229811 C9.67079256,15.5229811 10.1180914,15.0753267 10.1180914,14.5252701 L10.1180914,12.2845092 C10.1180914,11.7344525 9.67025921,11.2873315 9.12055811,11.2873315 L8.43752072,11.2873315 L8.43752072,9.2209745 L13.0418896,9.2209745 C13.2641168,9.2209745 13.4449208,9.4019563 13.4449208,9.62400568 L13.4449208,11.2873315 L12.7618834,11.2873315 C12.211649,11.2873315 11.7643502,11.7348081 11.7643502,12.2845092 L11.7643502,14.5252701 C11.7643502,15.0756823 12.2121823,15.5229811 12.7618834,15.5229811 L15.0026443,15.5229811 C15.552701,15.5229811 15.9999998,15.0753267 15.9999998,14.5252701 L15.9999998,12.2845092 C16.0003554,11.7344525 15.552701,11.2873315 15.0028221,11.2873315 Z M3.23847192,12.1618398 C3.30620676,12.1618398 3.3613191,12.2169522 3.3613191,12.2841536 L3.3613191,14.5249145 C3.3613191,14.5928271 3.30602898,14.6477617 3.23847192,14.6477617 L0.997533265,14.6477617 C0.929798428,14.6477617 0.874686093,14.5924716 0.874686093,14.5249145 L0.874686093,12.2845092 C0.874686093,12.2169522 0.929976209,12.1620176 0.997533265,12.1620176 L3.23847192,12.1620176 L3.23847192,12.1618398 Z M9.1207359,12.1618398 C9.18847073,12.1618398 9.24340529,12.2169522 9.24340529,12.2841536 L9.24340529,14.5249145 C9.24340529,14.5928271 9.18829295,14.6477617 9.1207359,14.6477617 L6.87961946,14.6477617 C6.81188462,14.6477617 6.75695007,14.5924716 6.75695007,14.5249145 L6.75695007,12.2845092 C6.75695007,12.2169522 6.8120624,12.1620176 6.87961946,12.1620176 L9.1207359,12.1620176 L9.1207359,12.1618398 Z M6.31960702,5.40488975 C6.09737986,5.40488975 5.91639806,5.22408574 5.91639806,5.00185858 L5.91639806,1.64071727 C5.91639806,1.41849011 6.09737986,1.23750831 6.31960702,1.23750831 L9.68074833,1.23750831 C9.90297549,1.23750831 10.0839573,1.41849011 10.0839573,1.64071727 L10.0839573,5.00185858 C10.0839573,5.22408574 9.90297549,5.40488975 9.68074833,5.40488975 L6.31960702,5.40488975 L6.31960702,5.40488975 Z M15.0028221,14.648295 L12.7618834,14.648295 C12.6939708,14.648295 12.6390363,14.5928271 12.6390363,14.5252701 L12.6390363,12.2845092 C12.6390363,12.2169522 12.6945042,12.1620176 12.7618834,12.1620176 L15.0026443,12.1620176 C15.0703791,12.1620176 15.1253137,12.2173077 15.1253137,12.2845092 L15.1253137,14.5252701 L15.1254915,14.5252701 C15.1256693,14.5931827 15.0705569,14.648295 15.0028221,14.648295 Z" id="Shape"></path>
        </g>
    </g>
</svg>