<?xml version="1.0" encoding="UTF-8" standalone="no"?>
<svg width="16px" height="16px" viewBox="0 0 16 16" version="1.1" xmlns="http://www.w3.org/2000/svg" xmlns:xlink="http://www.w3.org/1999/xlink">
    <!-- Generator: Sketch 46.1 (44463) - http://www.bohemiancoding.com/sketch -->
    <title>[icon] Section</title>
    <desc>Created with Sketch.</desc>
    <defs></defs>
    <g id="Symbols" stroke="none" stroke-width="1" fill="none" fill-rule="evenodd">
        <g id="[icon]-Section" fill-rule="nonzero" fill="#FFF">
            <g id="Group-2" transform="translate(1.000000, 1.000000)">
                <path d="M12.465587,6 L1.53441296,6 C1.23920378,6 1,5.76438007 1,5.47359384 L1,0.526406159 C1,0.235619929 1.23920378,0 1.53441296,0 L12.465587,0 C12.7607962,0 13,0.235619929 13,0.526406159 L13,5.47359384 C13,5.76438007 12.7607962,6 12.465587,6 Z M2.06882591,4.94718768 L11.9310054,4.94718768 L11.9310054,1.05281232 L2.06882591,1.05281232 L2.06882591,4.94718768 Z" id="Shape"></path>
                <path d="M12.465587,14 L1.53441296,14 C1.23920378,14 1,13.7643801 1,13.4735938 L1,8.52640616 C1,8.23561993 1.23920378,8 1.53441296,8 L12.465587,8 C12.7607962,8 13,8.23561993 13,8.52640616 L13,13.4735938 C13,13.7643801 12.7607962,14 12.465587,14 Z M2.06882591,12.9471877 L11.9310054,12.9471877 L11.9310054,9.05281232 L2.06882591,9.05281232 L2.06882591,12.9471877 Z" id="Shape-Copy"></path>
                <g id="Group" transform="translate(0.000000, 6.466667)">
                    <path d="M1.13963228,0.9088 L0.388622222,0.9088 C0.181333333,0.9088 0.0131555556,0.740622222 0.0131555556,0.533333333 C0.0131555556,0.326044444 0.181333333,0.157866667 0.388622222,0.157866667 L1.13963228,0.157866667 C1.34692117,0.157866667 1.51509895,0.326044444 1.51509895,0.533333333 C1.51509895,0.740622222 1.34692117,0.9088 1.13963228,0.9088 Z" id="Shape"></path>
                    <path d="M12.24,0.9088 L11.4887111,0.9088 C11.2814222,0.9088 11.1132444,0.740622222 11.1132444,0.533333333 C11.1132444,0.326044444 11.2814222,0.157866667 11.4887111,0.157866667 L12.24,0.157866667 C12.4472889,0.157866667 12.6154667,0.326044444 12.6154667,0.533333333 C12.6154667,0.740622222 12.4472889,0.9088 12.24,0.9088 Z M9.95217778,0.9088 L9.20088889,0.9088 C8.9936,0.9088 8.82542222,0.740622222 8.82542222,0.533333333 C8.82542222,0.326044444 8.9936,0.157866667 9.20088889,0.157866667 L9.95217778,0.157866667 C10.1594667,0.157866667 10.3276444,0.326044444 10.3276444,0.533333333 C10.3276444,0.740622222 10.1596444,0.9088 9.95217778,0.9088 Z M7.66453333,0.9088 L6.91342222,0.9088 C6.70613333,0.9088 6.53795556,0.740622222 6.53795556,0.533333333 C6.53795556,0.326044444 6.70613333,0.157866667 6.91342222,0.157866667 L7.66453333,0.157866667 C7.87182222,0.157866667 8.04,0.326044444 8.04,0.533333333 C8.04,0.740622222 7.87182222,0.9088 7.66453333,0.9088 Z M5.37671111,0.9088 L4.62577778,0.9088 C4.41848889,0.9088 4.25031111,0.740622222 4.25031111,0.533333333 C4.25031111,0.326044444 4.41848889,0.157866667 4.62577778,0.157866667 L5.37688889,0.157866667 C5.58417778,0.157866667 5.75235556,0.326044444 5.75235556,0.533333333 C5.75235556,0.740622222 5.58417778,0.9088 5.37671111,0.9088 Z M3.08924444,0.9088 L2.33795556,0.9088 C2.13066667,0.9088 1.96248889,0.740622222 1.96248889,0.533333333 C1.96248889,0.326044444 2.13066667,0.157866667 2.33795556,0.157866667 L3.08924444,0.157866667 C3.29653333,0.157866667 3.46471111,0.326044444 3.46471111,0.533333333 C3.46471111,0.740622222 3.29653333,0.9088 3.08924444,0.9088 Z" id="Shape"></path>
                    <path d="M14.1893333,0.9088 L13.7765333,0.9088 C13.5692444,0.9088 13.4010667,0.740622222 13.4010667,0.533333333 C13.4010667,0.326044444 13.5692444,0.157866667 13.7765333,0.157866667 L14.1893333,0.157866667 C14.3966222,0.157866667 14.5648,0.326044444 14.5648,0.533333333 C14.5648,0.740622222 14.3966222,0.9088 14.1893333,0.9088 Z" id="Shape"></path>
                </g>
            </g>
        </g>
    </g>
</svg>
