<?xml version="1.0" encoding="UTF-8" standalone="no"?>
<svg width="16px" height="16px" viewBox="0 0 16 16" version="1.1" xmlns="http://www.w3.org/2000/svg" xmlns:xlink="http://www.w3.org/1999/xlink">
    <!-- Generator: Sketch 46.1 (44463) - http://www.bohemiancoding.com/sketch -->
    <title>[icon] Signature</title>
    <desc>Created with Sketch.</desc>
    <defs></defs>
    <g id="Symbols" stroke="none" stroke-width="1" fill="none" fill-rule="evenodd">
        <g id="[icon]-Signature" fill-rule="nonzero" fill="#000000">
            <g id="Group">
                <path d="M15.36,10.63808 L7.51424,10.63808 C7.76192,9.82656 7.98464,8.94976 8.19072,8.05312 C8.74112,7.67808 9.28192,7.37088 9.74528,7.1872 C10.12736,7.03616 10.32,7.02464 10.39296,7.02464 C10.416,7.02464 10.42688,7.02656 10.42816,7.024 C10.44224,7.05984 10.5824,7.49824 9.77536,9.11104 C9.59488,9.47264 9.63072,9.73824 9.88224,9.90144 C10.27456,10.15552 10.4576,9.93344 11.13856,9.10272 C11.59936,8.5408 12.36992,7.59936 12.752,7.3408 C13.1584,7.06688 13.39264,7.05664 13.44256,7.0976 C13.53536,7.16992 13.63008,7.61728 13.31072,8.47104 C13.21792,8.72 13.34464,8.99584 13.59232,9.08928 C13.84256,9.18272 14.11712,9.05472 14.20992,8.80768 C14.6368,7.66464 14.57344,6.76608 14.03648,6.34304 C13.77344,6.13632 13.18848,5.88672 12.2144,6.54528 C11.98464,6.7008 11.71136,6.9664 11.40544,7.30304 C11.43232,6.90304 11.34272,6.60032 11.1392,6.37888 C10.61696,5.80864 9.69408,6.17408 9.392,6.2944 C9.11744,6.4032 8.80896,6.5568 8.48064,6.7456 C8.55552,6.39872 8.62848,6.05312 8.70144,5.71072 C8.73024,5.5744 8.7584,5.43936 8.7872,5.30496 C9.5808,4.88832 10.25536,4.41664 10.5888,3.9712 C11.96672,2.1344 11.808,1.13088 11.59104,0.69696 C11.39904,0.31296 11.02336,0.08384 10.58624,0.08384 C9.91744,0.08384 9.25248,0.5824 8.8512,1.38496 C8.53696,2.01344 8.25344,3.21216 7.94496,4.64896 C6.816,5.18208 5.49888,5.6 4.8,5.6 C4.53504,5.6 4.32,5.81504 4.32,6.08 C4.32,6.34496 4.53504,6.56 4.8,6.56 C5.50912,6.56 6.62144,6.25728 7.69728,5.81312 C7.58464,6.34432 7.46304,6.91392 7.3312,7.4944 C6.04672,8.42048 4.74688,9.64608 4.18432,10.63808 L0.64,10.63808 C0.46336,10.63808 0.32,10.78144 0.32,10.95808 C0.32,11.13472 0.46336,11.27808 0.64,11.27808 L3.86048,11.27808 C3.4752,12.12416 2.94464,13.59296 3.48928,14.34048 C3.6384,14.54528 3.91104,14.76416 4.39168,14.76416 C4.496,14.76416 4.60992,14.75392 4.73408,14.73088 C5.8688,14.52224 6.67328,13.13472 7.30752,11.27744 L15.36,11.27744 C15.53664,11.27744 15.68,11.13408 15.68,10.95744 C15.68,10.7808 15.53664,10.63808 15.36,10.63808 Z M9.70944,1.8144 C9.97376,1.28576 10.34944,1.04448 10.5856,1.04448 C10.68224,1.04448 10.71104,1.0848 10.73216,1.12704 C10.84992,1.36192 10.78976,2.10368 9.82016,3.39584 C9.66784,3.59936 9.40032,3.81952 9.06176,4.03904 C9.28448,3.05344 9.50016,2.2336 9.70944,1.8144 Z M6.976,8.97792 C6.82944,9.55072 6.67328,10.11136 6.50624,10.63808 L5.33568,10.63808 C5.73504,10.11712 6.3232,9.52832 6.976,8.97792 Z M4.56064,13.78752 C4.3744,13.82208 4.28224,13.7984 4.2656,13.77536 C4.0896,13.53344 4.34496,12.40704 4.92928,11.27808 L6.2912,11.27808 C5.80224,12.64704 5.23008,13.66464 4.56064,13.78752 Z" id="Shape"></path>
                <path d="M0.41344,9.18656 C0.47616,9.24864 0.55808,9.28 0.64,9.28 C0.72192,9.28 0.80384,9.24864 0.86656,9.18656 L1.6,8.45248 L2.33344,9.18592 C2.39616,9.24864 2.47808,9.28 2.56,9.28 C2.64192,9.28 2.72384,9.24864 2.78656,9.18656 C2.91136,9.06176 2.91136,8.85888 2.78656,8.73408 L2.05248,8 L2.78592,7.26656 C2.91072,7.14176 2.91072,6.93888 2.78592,6.81408 C2.66112,6.68928 2.45824,6.68928 2.33344,6.81408 L1.6,7.54752 L0.86656,6.81408 C0.74176,6.68928 0.53888,6.68928 0.41408,6.81408 C0.28928,6.93888 0.28928,7.14176 0.41408,7.26656 L1.14752,8 L0.41408,8.73344 C0.28864,8.85888 0.28864,9.06112 0.41344,9.18656 Z" id="Shape"></path>
            </g>
        </g>
    </g>
</svg>